<svg clip-rule="evenodd" fill-rule="evenodd" stroke-linejoin="round" stroke-miterlimit="2" viewBox="0 0 560 400" xmlns="http://www.w3.org/2000/svg"><g transform="matrix(.743017 0 0 .739832 99.9996 144.76)"><g transform="translate(0 .331)"><path d="m45.276 124.196h16.168c.078-5.591-2.796-8.46-7.708-8.46-4.533 0-7.629 2.34-8.46 8.46zm22.667 21.158c-4.004 1.739-8.16 2.645-13.072 2.645-11.182 0-18.511-4.082-18.511-19.342 0-13.072 6.344-19.95 17.527-19.95 11.11 0 16.324 6.121 16.324 16.547 0 .603-.074 3.325-.457 4.986h-24.63c.302 9.445 4.685 10.731 10.729 10.731 3.252 0 7.859-.831 10.653-1.889z" fill="#e74b23"/><path d="m268.822 115.92-31.242-92.991c5.274 28.76-1.433 53.478-7.257 68.056 1.425 4.38 3.11 8.763 5.075 13.116 22.09.237 33.424 11.819 33.424 11.819" fill="#e74b23"/><path d="m281.011 24.953c0-13.413-25.113-24.283-56.101-24.283-17.416 0-32.971 3.44-43.259 8.828 9.311-2.987 20.813-4.778 33.31-4.778 30.982 0 56.104 10.879 56.104 24.284 0 5.88-4.822 11.263-12.839 15.447 13.795-4.415 22.785-11.496 22.785-19.498" fill="#570a00"/><path d="m176.156 33.353c0-10.043 21.948-18.184 49.006-18.184 6.597 0 12.881.498 18.622 1.376-8.241-2.34-18.511-3.744-29.686-3.744-27.063 0-49.011 8.136-49.011 18.179 0 7.594 12.562 14.089 30.392 16.812-11.726-3.317-19.323-8.546-19.323-14.439" fill="#e74b23"/><path d="m256.475 141.778c-13.032-10.874-22.048-24.06-28.207-37.677-1.957-4.353-3.646-8.737-5.078-13.117-11.35-34.741-7.012-68.054-7.012-68.054l-40.017 120.752c10.817-4.178 26.021-6.792 42.926-6.792 14.176 0 27.169 1.839 37.388 4.888" fill="#570a00"/><path d="m8.767 117.7v29.542h-8.766v-52.893l8.766-.757v18.667h.379c3.703-2.421 7.402-3.553 11.635-3.553 7.106 0 11.94 3.854 11.94 11.863v26.673h-8.766v-24.182c0-4.831-1.587-7.326-6.272-7.326-3.776 0-6.573 1.055-8.916 1.966" fill="#e74b23"/></g><g fill="#e74b23"><path d="m74.494 94.681v52.891h8.839v-53.648z"/><g transform="translate(88 94.331)"><path d="m1.231 53.244h8.839v-37.778h-8.839zm4.456-52.669c2.797 0 5.14 2.343 5.14 5.214 0 2.794-2.343 5.139-5.14 5.139-2.874 0-5.214-2.345-5.214-5.139 0-2.871 2.34-5.214 5.214-5.214z"/><path d="m30.922 47.349c6.573 0 9.442-4.381 9.442-13.751 0-8.163-2.113-12.242-8.684-12.242-6.576 0-9.523 4.458-9.523 13.748 0 8.241 2.188 12.245 8.765 12.245m1.132-32.642c10.581 0 17.076 5.666 17.076 18.891 0 13.222-5.742 20.402-18.585 20.402-10.578 0-17.154-5.669-17.154-18.896 0-13.222 5.82-20.397 18.663-20.397"/><path d="m52.201 44.854c2.869 1.058 7.931 2.116 11.484 2.116 4.31 0 7.481-1.136 7.481-4.154 0-3.553-3.699-4.461-8.16-5.593-6.199-1.509-11.636-4.611-11.636-11.639 0-7.93 5.666-10.878 14.887-10.878 3.627 0 8.611 1.131 11.787 2.189l-1.437 7.028c-3.856-1.431-7.631-2.188-10.204-2.188-4.228 0-6.271 1.432-6.271 3.703 0 3.17 3.553 3.777 7.712 4.984 6.194 1.661 12.088 3.929 12.088 11.791 0 8.306-7.03 11.785-16.323 11.785-3.4 0-9.442-.829-12.767-2.116z"/><path d="m203.893 3.371v12.09h10.577l-.753 6.573h-9.824v21.008c0 3.024 2.417 3.931 4.232 3.931 1.059 0 2.267.074 6.271-.607l.905 6.349c-3.017.757-5.967 1.282-8.991 1.282-6.495 0-11.183-3.174-11.256-9.974v-21.989h-5.742v-6.573h5.742v-11.337z"/><path d="m233.537 47.349c6.573 0 9.442-4.381 9.442-13.751 0-8.163-2.113-12.242-8.684-12.242-6.576 0-9.523 4.458-9.523 13.748 0 8.241 2.188 12.245 8.765 12.245m1.132-32.642c10.581 0 17.08 5.666 17.08 18.891 0 13.222-5.746 20.402-18.589 20.402-10.578 0-17.151-5.669-17.151-18.896 0-13.222 5.817-20.397 18.66-20.397"/></g><path d="m387.342 109.794-7.554 28.033-7.631-28.033h-9.221l-7.63 28.033-7.477-28.033h-9.523l12.087 38.157h10.129l7.022-24.176 6.953 24.176h10.126l12.242-38.157z"/><g transform="translate(395 108.331)"><path d="m9.335 16.196h16.174c.077-5.591-2.797-8.46-7.709-8.46-4.537 0-7.635 2.34-8.465 8.46zm22.673 21.158c-4.01 1.739-8.164 2.645-13.073 2.645-11.187 0-18.511-4.082-18.511-19.342 0-13.072 6.344-19.95 17.528-19.95 11.106 0 16.318 6.121 16.318 16.547 0 .603-.073 3.325-.452 4.986h-24.629c.298 9.445 4.681 10.731 10.723 10.731 3.252 0 7.864-.831 10.664-1.889z"/><path d="m59.291 8.262c-6.349-.227-10.202.756-12.469 1.664v29.318h-8.839v-37.783h8.839v2.797h.301c3.171-2.116 7.106-3.932 12.168-3.403z"/><path d="m61.781 30.854c2.874 1.058 7.936 2.116 11.489 2.116 4.305 0 7.479-1.136 7.479-4.154 0-3.553-3.702-4.461-8.16-5.593-6.197-1.509-11.638-4.611-11.638-11.639 0-7.93 5.668-10.878 14.882-10.878 3.631 0 8.621 1.131 11.791 2.189l-1.434 7.028c-3.854-1.431-7.634-2.188-10.201-2.188-4.234 0-6.272 1.432-6.272 3.703 0 3.17 3.553 3.777 7.707 4.984 6.194 1.661 12.088 3.929 12.088 11.791 0 8.306-7.024 11.785-16.32 11.785-3.403 0-9.445-.829-12.77-2.116z"/></g></g></g></svg>